<mxfile host="app.diagrams.net" modified="2023-07-20T22:41:29.712Z" agent="Mozilla/5.0 (Windows NT 10.0; Win64; x64; rv:109.0) Gecko/20100101 Firefox/115.0" etag="AG_upfPjRg222G9Ki3gG" version="21.6.2" type="device">
  <diagram name="Strona-1" id="dMVNizHPvJN8CCyft0p9">
    <mxGraphModel dx="2327" dy="769" grid="1" gridSize="10" guides="1" tooltips="1" connect="1" arrows="1" fold="1" page="1" pageScale="1" pageWidth="827" pageHeight="1169" math="0" shadow="0">
      <root>
        <mxCell id="0" />
        <mxCell id="1" parent="0" />
        <mxCell id="3AthHkXCR67KAWAovLi--5" value="" style="edgeStyle=orthogonalEdgeStyle;rounded=0;orthogonalLoop=1;jettySize=auto;html=1;" parent="1" source="3AthHkXCR67KAWAovLi--1" target="3AthHkXCR67KAWAovLi--4" edge="1">
          <mxGeometry relative="1" as="geometry" />
        </mxCell>
        <mxCell id="3AthHkXCR67KAWAovLi--1" value="Pyrodust" style="rounded=0;whiteSpace=wrap;html=1;" parent="1" vertex="1">
          <mxGeometry x="294" y="170" width="120" height="60" as="geometry" />
        </mxCell>
        <mxCell id="3AthHkXCR67KAWAovLi--15" style="edgeStyle=orthogonalEdgeStyle;rounded=0;orthogonalLoop=1;jettySize=auto;html=1;exitX=0;exitY=0.25;exitDx=0;exitDy=0;entryX=0.5;entryY=1;entryDx=0;entryDy=0;" parent="1" source="3AthHkXCR67KAWAovLi--3" target="3AthHkXCR67KAWAovLi--10" edge="1">
          <mxGeometry relative="1" as="geometry" />
        </mxCell>
        <mxCell id="3AthHkXCR67KAWAovLi--95" value="" style="edgeStyle=orthogonalEdgeStyle;rounded=0;orthogonalLoop=1;jettySize=auto;html=1;" parent="1" source="3AthHkXCR67KAWAovLi--3" target="3AthHkXCR67KAWAovLi--94" edge="1">
          <mxGeometry relative="1" as="geometry" />
        </mxCell>
        <mxCell id="Fcrjs0fXRwcgXbqQfPj4-1" style="edgeStyle=orthogonalEdgeStyle;rounded=0;orthogonalLoop=1;jettySize=auto;html=1;exitX=0;exitY=0.5;exitDx=0;exitDy=0;entryX=1;entryY=0.75;entryDx=0;entryDy=0;" edge="1" parent="1" source="3AthHkXCR67KAWAovLi--3" target="3AthHkXCR67KAWAovLi--67">
          <mxGeometry relative="1" as="geometry">
            <Array as="points">
              <mxPoint x="70" y="400" />
              <mxPoint x="70" y="350" />
              <mxPoint x="-100" y="350" />
              <mxPoint x="-100" y="297" />
            </Array>
          </mxGeometry>
        </mxCell>
        <mxCell id="3AthHkXCR67KAWAovLi--3" value="Compacted Pyrophenium" style="rounded=0;whiteSpace=wrap;html=1;fillColor=#f5f5f5;fontColor=#333333;strokeColor=#666666;" parent="1" vertex="1">
          <mxGeometry x="294" y="370" width="120" height="60" as="geometry" />
        </mxCell>
        <mxCell id="3AthHkXCR67KAWAovLi--6" value="" style="edgeStyle=orthogonalEdgeStyle;rounded=0;orthogonalLoop=1;jettySize=auto;html=1;" parent="1" source="3AthHkXCR67KAWAovLi--4" target="3AthHkXCR67KAWAovLi--3" edge="1">
          <mxGeometry relative="1" as="geometry" />
        </mxCell>
        <mxCell id="3AthHkXCR67KAWAovLi--4" value="Pyrophenium Compactor" style="shape=process;whiteSpace=wrap;html=1;backgroundOutline=1;fillColor=#ffe6cc;strokeColor=#d79b00;" parent="1" vertex="1">
          <mxGeometry x="294" y="270" width="120" height="60" as="geometry" />
        </mxCell>
        <mxCell id="3AthHkXCR67KAWAovLi--8" value="" style="edgeStyle=orthogonalEdgeStyle;rounded=0;orthogonalLoop=1;jettySize=auto;html=1;" parent="1" source="3AthHkXCR67KAWAovLi--7" target="3AthHkXCR67KAWAovLi--1" edge="1">
          <mxGeometry relative="1" as="geometry" />
        </mxCell>
        <mxCell id="3AthHkXCR67KAWAovLi--7" value="Skrobarka" style="shape=trapezoid;perimeter=trapezoidPerimeter;whiteSpace=wrap;html=1;fixedSize=1;fillColor=#d5e8d4;strokeColor=#82b366;" parent="1" vertex="1">
          <mxGeometry x="294" y="50" width="120" height="60" as="geometry" />
        </mxCell>
        <mxCell id="3AthHkXCR67KAWAovLi--11" value="" style="edgeStyle=orthogonalEdgeStyle;rounded=0;orthogonalLoop=1;jettySize=auto;html=1;" parent="1" source="3AthHkXCR67KAWAovLi--10" target="3AthHkXCR67KAWAovLi--4" edge="1">
          <mxGeometry relative="1" as="geometry" />
        </mxCell>
        <mxCell id="3AthHkXCR67KAWAovLi--10" value="4 heat" style="shape=step;perimeter=stepPerimeter;whiteSpace=wrap;html=1;fixedSize=1;fillColor=#f8cecc;strokeColor=#b85450;" parent="1" vertex="1">
          <mxGeometry x="100" y="270" width="120" height="60" as="geometry" />
        </mxCell>
        <mxCell id="3AthHkXCR67KAWAovLi--14" value="" style="edgeStyle=orthogonalEdgeStyle;rounded=0;orthogonalLoop=1;jettySize=auto;html=1;" parent="1" source="3AthHkXCR67KAWAovLi--12" target="3AthHkXCR67KAWAovLi--13" edge="1">
          <mxGeometry relative="1" as="geometry" />
        </mxCell>
        <mxCell id="3AthHkXCR67KAWAovLi--19" style="edgeStyle=orthogonalEdgeStyle;rounded=0;orthogonalLoop=1;jettySize=auto;html=1;exitX=1;exitY=0.5;exitDx=0;exitDy=0;" parent="1" source="3AthHkXCR67KAWAovLi--12" target="3AthHkXCR67KAWAovLi--18" edge="1">
          <mxGeometry relative="1" as="geometry" />
        </mxCell>
        <mxCell id="3AthHkXCR67KAWAovLi--51" style="edgeStyle=orthogonalEdgeStyle;rounded=0;orthogonalLoop=1;jettySize=auto;html=1;exitX=1;exitY=0.5;exitDx=0;exitDy=0;" parent="1" source="3AthHkXCR67KAWAovLi--12" target="3AthHkXCR67KAWAovLi--50" edge="1">
          <mxGeometry relative="1" as="geometry" />
        </mxCell>
        <mxCell id="3AthHkXCR67KAWAovLi--87" style="edgeStyle=orthogonalEdgeStyle;rounded=0;orthogonalLoop=1;jettySize=auto;html=1;exitX=1;exitY=0.25;exitDx=0;exitDy=0;" parent="1" source="3AthHkXCR67KAWAovLi--12" target="3AthHkXCR67KAWAovLi--86" edge="1">
          <mxGeometry relative="1" as="geometry" />
        </mxCell>
        <mxCell id="3AthHkXCR67KAWAovLi--93" style="edgeStyle=orthogonalEdgeStyle;rounded=0;orthogonalLoop=1;jettySize=auto;html=1;exitX=0;exitY=0.25;exitDx=0;exitDy=0;entryX=1;entryY=0.25;entryDx=0;entryDy=0;" parent="1" source="3AthHkXCR67KAWAovLi--12" target="3AthHkXCR67KAWAovLi--7" edge="1">
          <mxGeometry relative="1" as="geometry" />
        </mxCell>
        <mxCell id="3AthHkXCR67KAWAovLi--12" value="&lt;div&gt;Stroke Drill&lt;/div&gt;" style="shape=trapezoid;perimeter=trapezoidPerimeter;whiteSpace=wrap;html=1;fixedSize=1;fillColor=#d5e8d4;strokeColor=#82b366;" parent="1" vertex="1">
          <mxGeometry x="740" y="50" width="120" height="60" as="geometry" />
        </mxCell>
        <mxCell id="3AthHkXCR67KAWAovLi--46" style="edgeStyle=orthogonalEdgeStyle;rounded=0;orthogonalLoop=1;jettySize=auto;html=1;exitX=0.25;exitY=1;exitDx=0;exitDy=0;entryX=1;entryY=0.5;entryDx=0;entryDy=0;" parent="1" source="3AthHkXCR67KAWAovLi--13" target="3AthHkXCR67KAWAovLi--43" edge="1">
          <mxGeometry relative="1" as="geometry" />
        </mxCell>
        <mxCell id="3AthHkXCR67KAWAovLi--13" value="Palladium" style="rounded=0;whiteSpace=wrap;html=1;" parent="1" vertex="1">
          <mxGeometry x="740" y="170" width="120" height="60" as="geometry" />
        </mxCell>
        <mxCell id="3AthHkXCR67KAWAovLi--17" value="" style="edgeStyle=orthogonalEdgeStyle;rounded=0;orthogonalLoop=1;jettySize=auto;html=1;entryX=0.5;entryY=0;entryDx=0;entryDy=0;" parent="1" source="3AthHkXCR67KAWAovLi--16" target="3AthHkXCR67KAWAovLi--37" edge="1">
          <mxGeometry relative="1" as="geometry">
            <mxPoint x="140" y="220" as="targetPoint" />
          </mxGeometry>
        </mxCell>
        <mxCell id="3AthHkXCR67KAWAovLi--53" style="edgeStyle=orthogonalEdgeStyle;rounded=0;orthogonalLoop=1;jettySize=auto;html=1;exitX=0;exitY=0.5;exitDx=0;exitDy=0;entryX=0.5;entryY=0;entryDx=0;entryDy=0;" parent="1" source="3AthHkXCR67KAWAovLi--16" target="3AthHkXCR67KAWAovLi--52" edge="1">
          <mxGeometry relative="1" as="geometry" />
        </mxCell>
        <mxCell id="3AthHkXCR67KAWAovLi--16" value="Methane Collector" style="shape=trapezoid;perimeter=trapezoidPerimeter;whiteSpace=wrap;html=1;fixedSize=1;fillColor=#dae8fc;strokeColor=#6c8ebf;" parent="1" vertex="1">
          <mxGeometry x="100" y="50" width="120" height="60" as="geometry" />
        </mxCell>
        <mxCell id="3AthHkXCR67KAWAovLi--40" value="" style="edgeStyle=orthogonalEdgeStyle;rounded=0;orthogonalLoop=1;jettySize=auto;html=1;" parent="1" source="3AthHkXCR67KAWAovLi--18" target="3AthHkXCR67KAWAovLi--39" edge="1">
          <mxGeometry relative="1" as="geometry" />
        </mxCell>
        <mxCell id="3AthHkXCR67KAWAovLi--18" value="&lt;div&gt;Silica&lt;/div&gt;" style="rounded=0;whiteSpace=wrap;html=1;" parent="1" vertex="1">
          <mxGeometry x="560" y="170" width="120" height="60" as="geometry" />
        </mxCell>
        <mxCell id="3AthHkXCR67KAWAovLi--23" value="" style="edgeStyle=orthogonalEdgeStyle;rounded=0;orthogonalLoop=1;jettySize=auto;html=1;" parent="1" source="3AthHkXCR67KAWAovLi--21" target="3AthHkXCR67KAWAovLi--22" edge="1">
          <mxGeometry relative="1" as="geometry" />
        </mxCell>
        <mxCell id="3AthHkXCR67KAWAovLi--25" value="" style="edgeStyle=orthogonalEdgeStyle;rounded=0;orthogonalLoop=1;jettySize=auto;html=1;" parent="1" source="3AthHkXCR67KAWAovLi--21" target="3AthHkXCR67KAWAovLi--24" edge="1">
          <mxGeometry relative="1" as="geometry" />
        </mxCell>
        <mxCell id="3AthHkXCR67KAWAovLi--21" value="Pump" style="shape=trapezoid;perimeter=trapezoidPerimeter;whiteSpace=wrap;html=1;fixedSize=1;fillColor=#dae8fc;strokeColor=#6c8ebf;" parent="1" vertex="1">
          <mxGeometry x="1679" y="70" width="120" height="60" as="geometry" />
        </mxCell>
        <mxCell id="3AthHkXCR67KAWAovLi--74" style="edgeStyle=orthogonalEdgeStyle;rounded=0;orthogonalLoop=1;jettySize=auto;html=1;exitX=0.25;exitY=0;exitDx=0;exitDy=0;entryX=0;entryY=0.25;entryDx=0;entryDy=0;" parent="1" source="3AthHkXCR67KAWAovLi--22" target="3AthHkXCR67KAWAovLi--67" edge="1">
          <mxGeometry relative="1" as="geometry">
            <Array as="points">
              <mxPoint x="1540" y="110" />
              <mxPoint x="1540" y="20" />
              <mxPoint x="-290" y="20" />
              <mxPoint x="-290" y="263" />
            </Array>
          </mxGeometry>
        </mxCell>
        <mxCell id="3AthHkXCR67KAWAovLi--22" value="Water" style="whiteSpace=wrap;html=1;fillColor=#E6F3FA;" parent="1" vertex="1">
          <mxGeometry x="1510" y="160" width="120" height="60" as="geometry" />
        </mxCell>
        <mxCell id="3AthHkXCR67KAWAovLi--27" value="" style="edgeStyle=orthogonalEdgeStyle;rounded=0;orthogonalLoop=1;jettySize=auto;html=1;" parent="1" source="3AthHkXCR67KAWAovLi--24" target="3AthHkXCR67KAWAovLi--26" edge="1">
          <mxGeometry relative="1" as="geometry" />
        </mxCell>
        <mxCell id="3AthHkXCR67KAWAovLi--64" style="edgeStyle=orthogonalEdgeStyle;rounded=0;orthogonalLoop=1;jettySize=auto;html=1;exitX=0.25;exitY=1;exitDx=0;exitDy=0;entryX=1;entryY=0.5;entryDx=0;entryDy=0;" parent="1" source="3AthHkXCR67KAWAovLi--24" target="3AthHkXCR67KAWAovLi--60" edge="1">
          <mxGeometry relative="1" as="geometry" />
        </mxCell>
        <mxCell id="3AthHkXCR67KAWAovLi--24" value="Waste Water" style="whiteSpace=wrap;html=1;fillColor=#E6F3FA;" parent="1" vertex="1">
          <mxGeometry x="1863.5" y="70" width="120" height="60" as="geometry" />
        </mxCell>
        <mxCell id="3AthHkXCR67KAWAovLi--34" style="edgeStyle=orthogonalEdgeStyle;rounded=0;orthogonalLoop=1;jettySize=auto;html=1;" parent="1" source="3AthHkXCR67KAWAovLi--26" target="3AthHkXCR67KAWAovLi--28" edge="1">
          <mxGeometry relative="1" as="geometry" />
        </mxCell>
        <mxCell id="3AthHkXCR67KAWAovLi--35" value="" style="edgeStyle=orthogonalEdgeStyle;rounded=0;orthogonalLoop=1;jettySize=auto;html=1;" parent="1" source="3AthHkXCR67KAWAovLi--26" target="3AthHkXCR67KAWAovLi--30" edge="1">
          <mxGeometry relative="1" as="geometry" />
        </mxCell>
        <mxCell id="3AthHkXCR67KAWAovLi--59" style="edgeStyle=orthogonalEdgeStyle;rounded=0;orthogonalLoop=1;jettySize=auto;html=1;exitX=0;exitY=0.5;exitDx=0;exitDy=0;" parent="1" source="3AthHkXCR67KAWAovLi--26" target="3AthHkXCR67KAWAovLi--58" edge="1">
          <mxGeometry relative="1" as="geometry" />
        </mxCell>
        <mxCell id="3AthHkXCR67KAWAovLi--26" value="Recyclinator" style="shape=process;whiteSpace=wrap;html=1;backgroundOutline=1;fillColor=#ffe6cc;strokeColor=#d79b00;" parent="1" vertex="1">
          <mxGeometry x="1863.5" y="350" width="120" height="60" as="geometry" />
        </mxCell>
        <mxCell id="3AthHkXCR67KAWAovLi--28" value="Silica" style="rounded=0;whiteSpace=wrap;html=1;" parent="1" vertex="1">
          <mxGeometry x="2023.5" y="470" width="120" height="60" as="geometry" />
        </mxCell>
        <mxCell id="3AthHkXCR67KAWAovLi--30" value="Palladium" style="rounded=0;whiteSpace=wrap;html=1;" parent="1" vertex="1">
          <mxGeometry x="1863.5" y="470" width="120" height="60" as="geometry" />
        </mxCell>
        <mxCell id="3AthHkXCR67KAWAovLi--38" style="edgeStyle=orthogonalEdgeStyle;rounded=0;orthogonalLoop=1;jettySize=auto;html=1;" parent="1" source="3AthHkXCR67KAWAovLi--37" target="3AthHkXCR67KAWAovLi--10" edge="1">
          <mxGeometry relative="1" as="geometry" />
        </mxCell>
        <mxCell id="3AthHkXCR67KAWAovLi--37" value="Methane" style="whiteSpace=wrap;html=1;fillColor=#E6F3FA;" parent="1" vertex="1">
          <mxGeometry x="100" y="170" width="120" height="60" as="geometry" />
        </mxCell>
        <mxCell id="3AthHkXCR67KAWAovLi--42" value="" style="edgeStyle=orthogonalEdgeStyle;rounded=0;orthogonalLoop=1;jettySize=auto;html=1;" parent="1" source="3AthHkXCR67KAWAovLi--39" target="3AthHkXCR67KAWAovLi--41" edge="1">
          <mxGeometry relative="1" as="geometry" />
        </mxCell>
        <mxCell id="3AthHkXCR67KAWAovLi--39" value="Siliglass Smelter" style="shape=process;whiteSpace=wrap;html=1;backgroundOutline=1;fillColor=#ffe6cc;strokeColor=#d79b00;" parent="1" vertex="1">
          <mxGeometry x="560" y="270" width="120" height="60" as="geometry" />
        </mxCell>
        <mxCell id="3AthHkXCR67KAWAovLi--47" style="edgeStyle=orthogonalEdgeStyle;rounded=0;orthogonalLoop=1;jettySize=auto;html=1;exitX=1;exitY=0.5;exitDx=0;exitDy=0;entryX=0.75;entryY=0;entryDx=0;entryDy=0;" parent="1" source="3AthHkXCR67KAWAovLi--41" target="3AthHkXCR67KAWAovLi--43" edge="1">
          <mxGeometry relative="1" as="geometry" />
        </mxCell>
        <mxCell id="3AthHkXCR67KAWAovLi--41" value="Siliglass" style="rounded=0;whiteSpace=wrap;html=1;fillColor=#f5f5f5;strokeColor=#666666;fontColor=#333333;" parent="1" vertex="1">
          <mxGeometry x="560" y="370" width="120" height="60" as="geometry" />
        </mxCell>
        <mxCell id="3AthHkXCR67KAWAovLi--49" style="edgeStyle=orthogonalEdgeStyle;rounded=0;orthogonalLoop=1;jettySize=auto;html=1;exitX=0.5;exitY=1;exitDx=0;exitDy=0;" parent="1" source="3AthHkXCR67KAWAovLi--43" target="3AthHkXCR67KAWAovLi--48" edge="1">
          <mxGeometry relative="1" as="geometry" />
        </mxCell>
        <mxCell id="3AthHkXCR67KAWAovLi--43" value="Armor Press Mk1" style="shape=process;whiteSpace=wrap;html=1;backgroundOutline=1;fillColor=#ffe6cc;strokeColor=#d79b00;" parent="1" vertex="1">
          <mxGeometry x="630" y="530" width="120" height="60" as="geometry" />
        </mxCell>
        <mxCell id="3AthHkXCR67KAWAovLi--48" value="Armor Plate Mk1" style="rounded=0;whiteSpace=wrap;html=1;fillColor=#f5f5f5;fontColor=#333333;strokeColor=#666666;" parent="1" vertex="1">
          <mxGeometry x="630" y="640" width="120" height="60" as="geometry" />
        </mxCell>
        <mxCell id="3AthHkXCR67KAWAovLi--97" style="edgeStyle=orthogonalEdgeStyle;rounded=0;orthogonalLoop=1;jettySize=auto;html=1;exitX=0.25;exitY=1;exitDx=0;exitDy=0;entryX=0.75;entryY=0;entryDx=0;entryDy=0;" parent="1" source="3AthHkXCR67KAWAovLi--50" target="3AthHkXCR67KAWAovLi--94" edge="1">
          <mxGeometry relative="1" as="geometry">
            <Array as="points">
              <mxPoint x="950" y="460" />
              <mxPoint x="384" y="460" />
            </Array>
          </mxGeometry>
        </mxCell>
        <mxCell id="3AthHkXCR67KAWAovLi--50" value="Resonance Crystal" style="rounded=0;whiteSpace=wrap;html=1;" parent="1" vertex="1">
          <mxGeometry x="920" y="170" width="120" height="60" as="geometry" />
        </mxCell>
        <mxCell id="3AthHkXCR67KAWAovLi--57" value="" style="edgeStyle=orthogonalEdgeStyle;rounded=0;orthogonalLoop=1;jettySize=auto;html=1;" parent="1" source="3AthHkXCR67KAWAovLi--52" target="3AthHkXCR67KAWAovLi--56" edge="1">
          <mxGeometry relative="1" as="geometry" />
        </mxCell>
        <mxCell id="3AthHkXCR67KAWAovLi--68" value="" style="edgeStyle=orthogonalEdgeStyle;rounded=0;orthogonalLoop=1;jettySize=auto;html=1;" parent="1" source="3AthHkXCR67KAWAovLi--52" target="3AthHkXCR67KAWAovLi--67" edge="1">
          <mxGeometry relative="1" as="geometry" />
        </mxCell>
        <mxCell id="3AthHkXCR67KAWAovLi--52" value="Methane Burner" style="shape=hexagon;perimeter=hexagonPerimeter2;whiteSpace=wrap;html=1;fixedSize=1;fillColor=#ffe6cc;strokeColor=#d79b00;" parent="1" vertex="1">
          <mxGeometry x="-260" y="120" width="120" height="80" as="geometry" />
        </mxCell>
        <mxCell id="3AthHkXCR67KAWAovLi--56" value="&lt;div&gt;180 power&lt;/div&gt;" style="triangle;whiteSpace=wrap;html=1;fillColor=#f8cecc;strokeColor=#b85450;" parent="1" vertex="1">
          <mxGeometry x="-80" y="120" width="80" height="80" as="geometry" />
        </mxCell>
        <mxCell id="3AthHkXCR67KAWAovLi--58" value="Waste" style="rounded=0;whiteSpace=wrap;html=1;fillColor=#f5f5f5;fontColor=#333333;strokeColor=#666666;" parent="1" vertex="1">
          <mxGeometry x="1694.5" y="470" width="120" height="60" as="geometry" />
        </mxCell>
        <mxCell id="3AthHkXCR67KAWAovLi--65" style="edgeStyle=orthogonalEdgeStyle;rounded=0;orthogonalLoop=1;jettySize=auto;html=1;exitX=0;exitY=0.5;exitDx=0;exitDy=0;entryX=1;entryY=0.5;entryDx=0;entryDy=0;" parent="1" source="3AthHkXCR67KAWAovLi--60" target="3AthHkXCR67KAWAovLi--22" edge="1">
          <mxGeometry relative="1" as="geometry" />
        </mxCell>
        <mxCell id="3AthHkXCR67KAWAovLi--66" style="edgeStyle=orthogonalEdgeStyle;rounded=0;orthogonalLoop=1;jettySize=auto;html=1;exitX=0;exitY=0.75;exitDx=0;exitDy=0;entryX=0.25;entryY=0;entryDx=0;entryDy=0;" parent="1" source="3AthHkXCR67KAWAovLi--60" target="3AthHkXCR67KAWAovLi--58" edge="1">
          <mxGeometry relative="1" as="geometry" />
        </mxCell>
        <mxCell id="3AthHkXCR67KAWAovLi--60" value="Water Filter" style="shape=process;whiteSpace=wrap;html=1;backgroundOutline=1;fillColor=#ffe6cc;strokeColor=#d79b00;" parent="1" vertex="1">
          <mxGeometry x="1743.5" y="240" width="120" height="60" as="geometry" />
        </mxCell>
        <mxCell id="3AthHkXCR67KAWAovLi--70" value="" style="edgeStyle=orthogonalEdgeStyle;rounded=0;orthogonalLoop=1;jettySize=auto;html=1;" parent="1" source="3AthHkXCR67KAWAovLi--67" target="3AthHkXCR67KAWAovLi--69" edge="1">
          <mxGeometry relative="1" as="geometry" />
        </mxCell>
        <mxCell id="3AthHkXCR67KAWAovLi--67" value="Hydrothermal Plant" style="shape=hexagon;perimeter=hexagonPerimeter2;whiteSpace=wrap;html=1;fixedSize=1;fillColor=#ffe6cc;strokeColor=#d79b00;" parent="1" vertex="1">
          <mxGeometry x="-260" y="240" width="120" height="80" as="geometry" />
        </mxCell>
        <mxCell id="3AthHkXCR67KAWAovLi--69" value="&lt;div&gt;480 power&lt;/div&gt;" style="triangle;whiteSpace=wrap;html=1;fillColor=#f8cecc;strokeColor=#b85450;" parent="1" vertex="1">
          <mxGeometry x="-80" y="240" width="80" height="80" as="geometry" />
        </mxCell>
        <mxCell id="3AthHkXCR67KAWAovLi--78" value="" style="edgeStyle=orthogonalEdgeStyle;rounded=0;orthogonalLoop=1;jettySize=auto;html=1;" parent="1" source="3AthHkXCR67KAWAovLi--75" target="3AthHkXCR67KAWAovLi--77" edge="1">
          <mxGeometry relative="1" as="geometry" />
        </mxCell>
        <mxCell id="3AthHkXCR67KAWAovLi--75" value="Resoplasma Generator" style="shape=hexagon;perimeter=hexagonPerimeter2;whiteSpace=wrap;html=1;fixedSize=1;fillColor=#ffe6cc;strokeColor=#d79b00;" parent="1" vertex="1">
          <mxGeometry x="-260" y="480" width="120" height="80" as="geometry" />
        </mxCell>
        <mxCell id="3AthHkXCR67KAWAovLi--77" value="&lt;div&gt;6000 power&lt;/div&gt;" style="triangle;whiteSpace=wrap;html=1;fillColor=#f8cecc;strokeColor=#b85450;" parent="1" vertex="1">
          <mxGeometry x="-80" y="480" width="80" height="80" as="geometry" />
        </mxCell>
        <mxCell id="3AthHkXCR67KAWAovLi--82" value="" style="edgeStyle=orthogonalEdgeStyle;rounded=0;orthogonalLoop=1;jettySize=auto;html=1;" parent="1" source="3AthHkXCR67KAWAovLi--83" target="3AthHkXCR67KAWAovLi--84" edge="1">
          <mxGeometry relative="1" as="geometry" />
        </mxCell>
        <mxCell id="3AthHkXCR67KAWAovLi--83" value="Arc Reactor" style="shape=hexagon;perimeter=hexagonPerimeter2;whiteSpace=wrap;html=1;fixedSize=1;fillColor=#ffe6cc;strokeColor=#d79b00;" parent="1" vertex="1">
          <mxGeometry x="-260" y="600" width="120" height="80" as="geometry" />
        </mxCell>
        <mxCell id="3AthHkXCR67KAWAovLi--84" value="36000 power" style="triangle;whiteSpace=wrap;html=1;fillColor=#f8cecc;strokeColor=#b85450;" parent="1" vertex="1">
          <mxGeometry x="-80" y="600" width="80" height="80" as="geometry" />
        </mxCell>
        <mxCell id="3AthHkXCR67KAWAovLi--89" value="" style="edgeStyle=orthogonalEdgeStyle;rounded=0;orthogonalLoop=1;jettySize=auto;html=1;" parent="1" source="3AthHkXCR67KAWAovLi--86" target="3AthHkXCR67KAWAovLi--88" edge="1">
          <mxGeometry relative="1" as="geometry" />
        </mxCell>
        <mxCell id="3AthHkXCR67KAWAovLi--86" value="Pressure Drill" style="shape=trapezoid;perimeter=trapezoidPerimeter;whiteSpace=wrap;html=1;fixedSize=1;fillColor=#d5e8d4;strokeColor=#82b366;" parent="1" vertex="1">
          <mxGeometry x="1120" y="170" width="120" height="60" as="geometry" />
        </mxCell>
        <mxCell id="3AthHkXCR67KAWAovLi--88" value="Magnetite" style="rounded=0;whiteSpace=wrap;html=1;" parent="1" vertex="1">
          <mxGeometry x="1120" y="280" width="120" height="60" as="geometry" />
        </mxCell>
        <mxCell id="3AthHkXCR67KAWAovLi--99" value="" style="edgeStyle=orthogonalEdgeStyle;rounded=0;orthogonalLoop=1;jettySize=auto;html=1;" parent="1" source="3AthHkXCR67KAWAovLi--94" target="3AthHkXCR67KAWAovLi--98" edge="1">
          <mxGeometry relative="1" as="geometry" />
        </mxCell>
        <mxCell id="3AthHkXCR67KAWAovLi--94" value="Thermoplast Furnace" style="shape=process;whiteSpace=wrap;html=1;backgroundOutline=1;fillColor=#ffe6cc;strokeColor=#d79b00;" parent="1" vertex="1">
          <mxGeometry x="294" y="490" width="120" height="60" as="geometry" />
        </mxCell>
        <mxCell id="3AthHkXCR67KAWAovLi--98" value="Thermoplast" style="rounded=0;whiteSpace=wrap;html=1;fillColor=#f5f5f5;fontColor=#333333;strokeColor=#666666;" parent="1" vertex="1">
          <mxGeometry x="294" y="600" width="120" height="60" as="geometry" />
        </mxCell>
        <mxCell id="Fcrjs0fXRwcgXbqQfPj4-2" value="Penetrate" style="shape=parallelogram;perimeter=parallelogramPerimeter;whiteSpace=wrap;html=1;fixedSize=1;fillColor=#e1d5e7;strokeColor=#9673a6;" vertex="1" parent="1">
          <mxGeometry x="2320" y="60" width="120" height="60" as="geometry" />
        </mxCell>
        <mxCell id="Fcrjs0fXRwcgXbqQfPj4-3" value="Pulverize" style="shape=parallelogram;perimeter=parallelogramPerimeter;whiteSpace=wrap;html=1;fixedSize=1;fillColor=#e1d5e7;strokeColor=#9673a6;" vertex="1" parent="1">
          <mxGeometry x="2540" y="420" width="120" height="60" as="geometry" />
        </mxCell>
        <mxCell id="Fcrjs0fXRwcgXbqQfPj4-4" value="Torment" style="shape=parallelogram;perimeter=parallelogramPerimeter;whiteSpace=wrap;html=1;fixedSize=1;fillColor=#e1d5e7;strokeColor=#9673a6;" vertex="1" parent="1">
          <mxGeometry x="2310" y="290" width="120" height="60" as="geometry" />
        </mxCell>
        <mxCell id="Fcrjs0fXRwcgXbqQfPj4-5" value="Cleaver" style="shape=parallelogram;perimeter=parallelogramPerimeter;whiteSpace=wrap;html=1;fixedSize=1;fillColor=#e1d5e7;strokeColor=#9673a6;" vertex="1" parent="1">
          <mxGeometry x="2490" y="280" width="120" height="60" as="geometry" />
        </mxCell>
        <mxCell id="Fcrjs0fXRwcgXbqQfPj4-6" value="Crossfire" style="shape=parallelogram;perimeter=parallelogramPerimeter;whiteSpace=wrap;html=1;fixedSize=1;fillColor=#e1d5e7;strokeColor=#9673a6;" vertex="1" parent="1">
          <mxGeometry x="2530" y="130" width="120" height="60" as="geometry" />
        </mxCell>
        <mxCell id="Fcrjs0fXRwcgXbqQfPj4-7" value="Blaze" style="shape=parallelogram;perimeter=parallelogramPerimeter;whiteSpace=wrap;html=1;fixedSize=1;fillColor=#e1d5e7;strokeColor=#9673a6;" vertex="1" parent="1">
          <mxGeometry x="2361" y="180" width="120" height="60" as="geometry" />
        </mxCell>
        <mxCell id="Fcrjs0fXRwcgXbqQfPj4-8" value="Inferius" style="shape=parallelogram;perimeter=parallelogramPerimeter;whiteSpace=wrap;html=1;fixedSize=1;fillColor=#e1d5e7;strokeColor=#9673a6;" vertex="1" parent="1">
          <mxGeometry x="2670" y="240" width="120" height="60" as="geometry" />
        </mxCell>
      </root>
    </mxGraphModel>
  </diagram>
</mxfile>
